<svg width="32" height="32" viewBox="0 0 32 32" fill="none" xmlns="http://www.w3.org/2000/svg">
<g clip-path="url(#clip0_1050_106)">
<path d="M27.2225 23.3808C28.4016 23.3489 29.4059 23.7092 30.2465 24.4969C31.01 25.2113 31.4273 26.1059 31.5554 27.147C31.5978 27.4917 31.4468 27.6994 31.1457 27.8106C31.4001 29.9729 30.4968 31.4837 28.7239 31.9146C27.3167 32.2594 25.314 31.5837 24.7643 29.2964C24.7465 29.2964 24.7202 29.2904 24.7117 29.2964C24.2138 29.8557 23.855 29.7919 23.5869 29.0921C23.5216 28.9198 23.4716 28.7474 23.4309 28.6233C23.1128 28.6578 22.8091 28.719 22.5046 28.7198C19.879 28.7273 17.2534 28.7273 14.6278 28.7198C14.3733 28.7198 14.2512 28.7448 14.2037 29.0646C13.9661 30.6434 12.5708 31.8035 10.9803 31.7888C10.2114 31.7853 9.46885 31.5036 8.88579 30.9943C8.30273 30.4849 7.91728 29.7813 7.79854 29.0094C7.78582 28.9232 7.76631 28.8422 7.75274 28.7715C7.49827 28.7216 7.25227 28.7009 7.02494 28.6242C6.06727 28.3027 5.52948 27.3659 5.61176 26.2179C5.67042 25.4341 5.86363 24.6667 6.18264 23.9505C6.49734 23.236 6.86123 22.5448 7.22174 21.851C7.25043 21.7997 7.28995 21.7555 7.33747 21.7215C7.38499 21.6875 7.43932 21.6647 7.49657 21.6546C9.99465 21.6451 12.4936 21.6477 14.9917 21.6494C15.0124 21.6527 15.0324 21.6594 15.051 21.6692C14.8873 23.2145 15.1181 24.0823 15.8467 24.5736C15.8755 24.1332 15.9052 23.7117 15.9315 23.286C16.0333 21.548 16.1351 19.8094 16.2369 18.0702C16.2674 17.5531 16.1181 17.3721 15.6058 17.3161C14.8381 17.2299 14.0705 17.1489 13.3037 17.0576C13.0921 17.0365 12.8873 16.9701 12.7028 16.8629C12.5183 16.7556 12.3583 16.6099 12.2332 16.4352C12.1081 16.2606 12.0208 16.061 11.9771 15.8497C11.9334 15.6383 11.9342 15.4199 11.9795 15.2089C12.4517 12.8739 12.9304 10.5401 13.4156 8.20743C13.6302 7.17324 14.4887 6.55875 15.4879 6.68027C16.3887 6.78886 17.0622 7.61018 17.0843 8.5987C17.0947 8.75227 17.1543 8.89817 17.2539 9.0141C18.1387 10.0138 19.3025 10.543 20.5129 10.9963C21.0865 11.2183 21.6977 11.3223 22.3112 11.3023C23.1357 11.2721 23.9619 11.2919 24.7881 11.2962C25.8221 11.3023 26.4277 11.915 26.4337 12.9578C26.4337 13.2802 26.4413 13.6033 26.4286 13.9257C26.4168 14.3118 26.26 14.6787 25.9905 14.9511C25.7209 15.2235 25.359 15.3808 24.9789 15.3908C24.6396 15.402 24.3063 15.3908 23.9254 15.3908C24.168 17.2135 24.5539 18.8976 26.0901 20.0584C27.0758 20.8039 27.4592 21.8252 27.2675 23.0636C27.2505 23.1576 27.2395 23.2524 27.2225 23.3808ZM20.8446 13.8283C19.2058 13.6394 17.6511 12.9913 16.354 11.9564C16.2293 12.5019 16.1088 12.9992 16.0019 13.4991C15.9171 13.9127 16.0121 14.0894 16.4057 14.2411C17.1273 14.518 17.8494 14.793 18.5721 15.0659C19.4857 15.4106 19.8377 15.9329 19.741 16.911C19.5315 19.0389 19.2991 21.1642 19.0777 23.2886C19.0149 23.8919 18.9555 24.4951 18.8945 25.1131H20.8454L20.8446 13.8283ZM27.9698 30.939C29.5993 30.9459 30.6986 29.2421 30.0353 27.7442C30.0022 27.6483 29.9419 27.5645 29.8621 27.5032C29.7823 27.4418 29.6865 27.4058 29.5866 27.3995C28.3303 27.2702 27.1462 27.4857 26.046 28.1346C25.9468 28.1852 25.8644 28.2643 25.8091 28.3621C25.7538 28.4598 25.7279 28.5719 25.7347 28.6845C25.7444 29.282 25.9834 29.8521 26.4007 30.2732C26.8181 30.6944 27.3808 30.9333 27.969 30.939H27.9698ZM8.82407 28.744C8.81304 29.848 9.91153 30.8124 11.1084 30.7606C12.2247 30.7141 13.2663 29.7092 13.1824 28.744H8.82407Z" fill="#60340B"/>
<path d="M5.65028 8.22434C6.79315 8.22434 7.93602 8.22434 9.07889 8.22434C10.0968 8.22434 10.727 8.86468 10.7279 9.89112C10.7279 11.7079 10.7279 13.5246 10.7279 15.3413C10.7279 16.3514 10.0934 16.9978 9.10349 16.9986C6.79626 16.9986 4.48903 16.9986 2.1818 16.9986C1.21056 16.9986 0.570134 16.3479 0.565045 15.3663C0.561652 13.5278 0.561652 11.6892 0.565045 9.85061C0.565045 8.88536 1.21056 8.22951 2.15805 8.2252C3.32185 8.22003 4.48564 8.22434 5.65028 8.22434Z" fill="#60340B"/>
<path d="M15.2809 20.6132H13.8083C11.6394 20.6132 9.46956 20.6132 7.3006 20.6184C7.20753 20.6262 7.11406 20.6093 7.02932 20.5694C6.94459 20.5295 6.87147 20.468 6.8171 20.3909C6.41979 19.8823 6.18956 19.2598 6.15886 18.6112C6.13765 18.1682 6.32257 17.9648 6.75263 17.9648C9.39803 17.9648 12.0437 17.9648 14.6897 17.9648C15.0519 17.9648 15.2665 18.126 15.2758 18.4552C15.2945 19.1585 15.2809 19.866 15.2809 20.6132Z" fill="#60340B"/>
<path d="M14.2871 3.56523C14.2923 2.88011 14.5649 2.22508 15.045 1.74402C15.5252 1.26296 16.1736 0.995205 16.848 0.999564C17.1822 1.00238 17.5125 1.07205 17.8202 1.20459C18.1279 1.33714 18.4069 1.52996 18.6412 1.77205C18.8755 2.01413 19.0606 2.30075 19.1859 2.61552C19.3112 2.93029 19.3743 3.26706 19.3715 3.6066C19.3628 4.28647 19.0909 4.9355 18.6146 5.41312C18.1383 5.89075 17.496 6.15853 16.8268 6.15847C16.4924 6.1578 16.1614 6.09016 15.8527 5.95944C15.5441 5.82872 15.2638 5.63747 15.028 5.39663C14.7921 5.15579 14.6053 4.87009 14.4781 4.55584C14.351 4.2416 14.2861 3.90498 14.2871 3.56523Z" fill="#60340B"/>
</g>
<defs>
<clipPath id="clip0_1050_106">
<rect width="31" height="31" fill="white" transform="translate(0.5625 0.998047)"/>
</clipPath>
</defs>
</svg>
